<?xml version="1.0" standalone="no"?>
<!DOCTYPE svg PUBLIC "-//W3C//DTD SVG 20010904//EN"
 "http://www.w3.org/TR/2001/REC-SVG-20010904/DTD/svg10.dtd">
<svg version="1.0" xmlns="http://www.w3.org/2000/svg"
 width="1419.000000pt" height="428.000000pt" viewBox="0 0 1419.000000 428.000000"
 preserveAspectRatio="xMidYMid meet">

<g transform="translate(0.000000,428.000000) scale(0.100000,-0.100000)"
fill="#000000" stroke="none">
<path d="M5529 3977 c-71 -39 -100 -68 -390 -381 -173 -187 -337 -365 -366
-396 l-52 -57 45 -66 c24 -37 44 -68 44 -69 0 -2 -30 -19 -66 -38 l-65 -35
-228 234 -227 234 -81 -44 c-49 -27 -88 -55 -98 -72 -9 -16 -19 -27 -20 -25
-2 2 0 29 4 61 4 31 6 57 4 57 -4 0 -246 -86 -298 -107 -22 -8 -107 -39 -190
-68 -325 -114 -403 -145 -477 -186 -64 -36 -78 -49 -79 -69 0 -14 -8 -119 -18
-235 -10 -115 -17 -211 -16 -212 1 -2 33 6 71 17 38 11 70 20 72 20 2 0 2 -24
0 -52 l-3 -53 -35 2 c-122 9 -305 -42 -437 -122 -41 -25 -77 -45 -79 -45 -1 0
6 30 17 68 30 102 36 233 14 327 -37 158 -128 286 -268 378 -147 97 -251 122
-502 121 -143 -1 -190 -5 -297 -27 -192 -41 -354 -95 -553 -187 -201 -93 -489
-276 -579 -368 l-59 -61 60 -138 c34 -76 105 -238 158 -360 l97 -221 79 35
c44 20 82 34 84 31 3 -3 21 -59 39 -124 133 -470 410 -1440 411 -1442 2 -3
453 157 597 211 68 26 215 118 224 141 2 6 -9 124 -24 261 -16 138 -28 252
-26 253 1 2 14 -18 27 -45 62 -121 156 -204 274 -244 85 -28 227 -31 322 -6
91 25 214 85 304 151 43 31 81 56 84 56 3 0 3 -52 -1 -115 -5 -102 -4 -115 10
-115 18 0 417 72 528 96 66 14 207 81 223 107 4 6 19 97 33 202 17 122 30 189
37 188 9 -2 363 -188 926 -487 l78 -41 75 40 c41 21 79 44 83 50 5 5 25 129
44 273 20 145 37 266 40 268 2 3 37 14 78 25 41 11 123 45 182 74 81 41 107
50 103 37 -45 -158 -76 -271 -76 -275 0 -3 19 -8 43 -12 23 -3 170 -23 325
-45 l284 -40 62 35 c35 19 68 35 73 35 6 0 23 -34 38 -75 l28 -75 63 36 c44
24 64 31 65 22 1 -7 0 -54 -1 -104 l-2 -90 144 -23 c78 -12 238 -38 355 -57
116 -19 222 -34 235 -34 13 0 57 20 98 44 l75 44 0 98 0 98 73 17 c40 9 91 24
113 34 21 10 42 16 45 12 3 -3 -5 -52 -19 -109 -14 -57 -28 -117 -32 -134 l-6
-31 88 -11 c48 -7 149 -19 223 -27 203 -24 184 -13 176 -98 -4 -40 -10 -88
-13 -108 l-5 -36 98 -32 c55 -17 167 -53 251 -80 l152 -48 82 46 82 46 162
365 c89 201 216 489 283 640 119 272 273 623 438 997 46 105 84 198 84 206 0
19 -9 22 -164 57 -72 17 -169 39 -216 50 -47 11 -132 31 -190 44 l-105 25 -62
-35 -63 -35 0 45 c0 51 -2 53 -62 65 -89 18 -458 94 -593 122 -77 16 -147 29
-156 29 -9 0 -51 -19 -92 -42 -58 -32 -78 -49 -81 -68 -3 -14 -15 -113 -26
-220 -24 -214 -26 -220 -89 -220 -87 -1 -238 -54 -344 -122 -26 -17 -49 -29
-51 -27 -2 2 -7 191 -11 419 -3 228 -8 417 -10 419 -2 2 -128 -2 -280 -7
l-275 -11 -68 -37 c-37 -20 -74 -43 -82 -50 -11 -9 -79 -15 -240 -20 l-225 -7
-80 -45 c-44 -25 -81 -46 -82 -47 -2 -1 -14 -41 -28 -91 -14 -49 -28 -95 -30
-102 -4 -10 -15 -6 -39 16 -113 99 -264 161 -395 162 -35 0 -51 4 -45 9 9 10
388 225 477 271 26 14 47 27 47 30 -1 15 -267 524 -275 527 -5 1 -44 -16 -86
-40z m108 -325 c40 -70 69 -130 65 -134 -20 -19 -548 -288 -558 -284 -6 2 -14
16 -18 30 -6 23 17 52 196 252 112 124 210 234 218 244 8 11 17 19 20 19 3 1
37 -57 77 -127z m1455 -439 c3 -27 6 -213 7 -414 2 -363 2 -365 -20 -385 -68
-61 -180 -265 -215 -394 -27 -97 -24 -274 5 -359 41 -117 119 -214 211 -261
39 -20 40 -22 40 -70 0 -60 8 -58 -180 -34 -69 9 -150 19 -180 23 l-55 6 -5
385 -5 385 -106 -209 -105 -208 -15 38 c-9 22 -46 140 -84 263 -48 154 -72
217 -77 205 -4 -11 -37 -127 -73 -259 -37 -132 -74 -264 -82 -294 l-15 -54
-54 6 c-30 3 -118 16 -195 28 -116 19 -140 25 -136 38 3 9 25 88 51 176 l47
160 96 97 97 97 -20 23 c-10 12 -24 27 -29 33 -6 5 -20 21 -32 35 l-23 26 29
99 c16 55 68 235 116 400 48 165 90 308 92 318 7 23 20 25 225 31 159 4 178 3
182 -12 3 -10 8 -126 12 -258 3 -133 9 -247 13 -252 4 -6 26 55 50 136 25 81
68 224 96 317 l52 170 114 6 c63 3 126 6 140 7 25 2 27 -1 31 -45z m-2683
-248 c83 -93 151 -172 151 -175 0 -9 -49 -60 -319 -332 l-265 -267 45 -20 c24
-10 125 -52 225 -92 l181 -74 34 -65 c74 -145 241 -264 409 -291 41 -7 78 -15
81 -18 7 -6 -36 -349 -45 -358 -4 -4 -243 116 -331 167 -40 23 -135 74 -280
150 -66 35 -124 66 -130 70 -5 4 -68 38 -140 75 -71 38 -160 85 -197 106 l-67
37 -5 -36 c-4 -21 -22 -158 -41 -307 -49 -376 -41 -342 -78 -350 -114 -24
-288 -51 -291 -46 -3 3 0 67 4 141 l9 135 46 80 c143 249 156 548 32 733 l-32
47 15 288 c8 158 15 287 15 287 0 -2 -130 -40 -137 -40 -12 0 -4 129 9 140 10
9 524 182 527 178 2 -2 -6 -106 -16 -233 -10 -126 -17 -247 -16 -268 l3 -39
85 109 c232 297 352 444 360 441 5 -2 77 -79 159 -173z m3871 81 c69 -13 166
-32 217 -41 l91 -17 6 -66 c4 -37 15 -206 26 -377 11 -170 23 -346 26 -389 l7
-79 34 94 c19 52 65 182 103 289 116 327 157 434 169 438 10 3 270 -47 354
-69 20 -5 37 -14 37 -18 0 -5 -61 -148 -136 -318 -75 -169 -205 -465 -289
-658 -85 -192 -210 -478 -279 -635 l-125 -285 -33 3 c-36 3 -239 61 -249 71
-4 3 -1 53 6 111 36 290 106 951 103 961 -2 5 -34 -95 -72 -223 -172 -579
-173 -583 -193 -587 -10 -2 -80 5 -155 15 -99 13 -138 22 -138 32 0 7 11 64
26 126 l25 114 73 74 c73 74 153 184 195 266 77 151 109 359 77 496 -17 71
-65 173 -95 200 -17 15 -16 24 15 164 18 81 30 150 28 153 -2 4 -26 12 -54 19
-56 13 -56 12 -38 107 l12 65 50 -6 c28 -3 107 -17 176 -30z m-2719 -78 c76
-36 143 -87 180 -140 l21 -28 -291 -298 c-286 -293 -290 -297 -257 -300 39 -4
143 29 203 64 23 13 69 49 102 79 l59 55 116 -122 116 -122 -32 -34 c-156
-163 -455 -298 -699 -317 -203 -16 -400 80 -477 231 -133 260 -5 641 278 829
160 107 294 146 480 142 119 -3 128 -5 201 -39z m-3665 22 c127 -13 219 -39
289 -83 341 -216 312 -622 -76 -1041 -66 -72 -188 -175 -264 -223 -37 -24 -44
-33 -45 -61 0 -18 20 -209 45 -424 25 -215 42 -395 38 -399 -5 -3 -21 -11 -38
-17 -16 -6 -93 -33 -169 -61 -76 -28 -140 -50 -142 -49 -1 2 -61 203 -132 448
-215 733 -345 1175 -347 1178 -2 2 -44 -17 -94 -43 l-92 -45 -18 42 c-10 24
-53 122 -95 219 -42 97 -76 179 -76 182 0 3 46 32 103 65 318 189 667 304 973
320 17 1 80 -3 140 -8z m5938 -420 c153 -58 230 -175 229 -350 0 -105 -21
-186 -72 -288 -99 -197 -271 -351 -468 -419 -104 -35 -229 -37 -318 -3 -80 30
-163 113 -196 196 -35 89 -33 230 4 340 68 201 228 383 424 482 120 61 295 80
397 42z m-3430 -247 c-3 -60 -7 -113 -9 -120 -3 -8 -16 -7 -49 6 -25 9 -48 20
-52 24 -4 4 -14 7 -23 7 -50 1 -42 19 46 103 48 48 89 87 90 87 2 0 0 -48 -3
-107z m-1251 -43 c99 -37 168 -106 209 -208 29 -75 31 -237 5 -327 -101 -336
-420 -606 -717 -608 -100 -1 -145 11 -220 55 -64 39 -109 95 -141 175 -20 49
-24 76 -24 173 1 103 4 124 31 202 90 254 324 477 569 543 79 21 224 19 288
-5z"/>
<path d="M5115 2746 c-89 -28 -175 -104 -221 -196 -22 -44 -29 -72 -32 -140
-4 -78 -2 -89 25 -139 53 -102 40 -109 283 151 118 127 216 236 218 243 4 18
-62 70 -107 84 -49 14 -115 13 -166 -3z m70 -178 c-38 -40 -100 -106 -138
-145 -38 -40 -73 -70 -78 -67 -18 11 -9 108 15 161 33 69 61 86 147 87 51 1
73 6 86 19 9 9 22 17 27 17 5 0 -22 -33 -59 -72z"/>
<path d="M1747 2466 c-37 -12 -72 -27 -78 -33 -7 -7 -5 -44 5 -114 23 -164 78
-504 82 -508 7 -8 119 74 184 136 141 133 196 307 135 429 -54 107 -178 141
-328 90z m152 -192 c20 -24 23 -35 19 -96 -4 -67 -3 -68 14 -46 10 13 18 18
18 12 0 -14 -50 -83 -78 -108 -26 -23 -24 -27 -47 121 -9 61 -19 121 -22 134
-6 21 -4 22 33 16 25 -4 48 -16 63 -33z"/>
<path d="M7523 2456 c-197 -62 -288 -321 -157 -451 46 -46 94 -65 165 -65 193
0 350 183 314 367 l-7 38 -14 -47 c-34 -112 -166 -175 -262 -124 -47 25 -76
90 -63 146 12 54 51 103 103 129 l43 21 -40 -1 c-22 0 -59 -6 -82 -13z"/>
<path d="M2870 2161 c-133 -41 -227 -151 -238 -277 -6 -85 15 -141 75 -193
130 -115 350 -48 437 132 31 64 42 141 26 182 l-12 30 -12 -38 c-15 -50 -56
-100 -99 -120 -41 -20 -132 -22 -165 -3 -56 31 -80 123 -48 184 20 37 64 78
106 96 l35 15 -40 0 c-22 -1 -51 -4 -65 -8z"/>
<path d="M10710 3219 c-261 -29 -811 -155 -904 -208 -73 -40 -119 -108 -124
-180 -3 -38 1 -69 13 -96 9 -22 36 -120 61 -217 24 -97 53 -201 64 -231 26
-70 76 -135 128 -167 47 -29 44 -15 72 -250 11 -91 27 -208 35 -260 8 -52 28
-205 45 -338 33 -266 42 -296 106 -352 93 -82 159 -88 439 -41 105 18 239 39
299 47 356 46 651 223 826 493 18 28 36 51 40 51 9 0 22 -40 90 -279 34 -118
67 -226 75 -241 25 -48 91 -98 152 -116 71 -21 155 -15 308 21 61 15 162 38
225 52 464 102 803 300 920 536 57 115 77 222 63 336 -21 166 -115 347 -262
503 l-73 78 20 27 c64 91 109 239 97 317 -17 109 -73 204 -180 304 -189 176
-505 253 -870 212 -136 -16 -404 -67 -545 -104 -69 -19 -149 -39 -178 -46
l-54 -12 -96 50 c-103 53 -238 93 -375 111 -90 13 -307 12 -417 0z m505 -228
c107 -29 188 -68 259 -125 55 -46 60 -47 95 -38 546 149 772 192 1000 192 161
0 295 -27 403 -81 56 -28 151 -121 182 -179 39 -72 33 -142 -19 -237 -37 -67
-110 -168 -139 -192 -27 -23 -18 -35 50 -70 164 -85 326 -306 356 -485 20
-119 -15 -239 -97 -333 -39 -46 -183 -147 -279 -195 -93 -47 -241 -94 -451
-144 -280 -66 -354 -80 -372 -68 -10 6 -38 86 -70 200 -29 104 -97 335 -149
514 -53 179 -105 357 -116 395 -11 39 -29 101 -40 139 l-20 69 -40 -39 -40
-39 7 -80 c8 -94 -8 -255 -35 -360 -74 -290 -268 -524 -523 -632 -102 -43
-162 -57 -342 -83 -82 -11 -215 -31 -294 -44 -79 -13 -150 -22 -158 -19 -18 7
-15 -12 -78 488 -85 676 -98 780 -101 784 -2 2 -17 -9 -35 -23 -42 -35 -76
-31 -105 12 -14 20 -39 101 -64 205 -22 95 -50 201 -62 236 -19 60 -20 65 -4
76 22 17 387 107 561 139 211 39 274 45 465 41 140 -2 191 -7 255 -24z"/>
<path d="M12410 2574 c-47 -9 -88 -19 -92 -22 -10 -10 65 -353 77 -352 18 1
145 112 217 190 39 41 80 94 91 118 20 40 20 43 4 59 -24 24 -184 27 -297 7z"/>
<path d="M10818 2528 c-19 -6 -28 -17 -28 -31 0 -41 52 -842 55 -845 2 -2 19
1 39 8 59 19 152 85 190 136 56 73 68 124 73 326 9 291 -23 381 -145 407 -64
13 -147 13 -184 -1z"/>
<path d="M12593 1927 c-36 -22 -63 -46 -63 -56 0 -22 39 -233 44 -238 2 -2 28
7 59 20 66 30 135 90 154 135 17 40 4 69 -54 123 -63 61 -70 61 -140 16z"/>
<path d="M8745 900 c-11 -5 -14 -9 -6 -9 10 -1 12 -11 8 -41 -3 -22 -1 -40 4
-40 5 0 9 16 9 35 0 22 6 38 15 41 18 7 20 24 3 23 -7 0 -22 -4 -33 -9z"/>
<path d="M8805 864 c-8 -54 -1 -69 10 -22 l9 33 3 -32 c3 -18 8 -33 12 -33 4
0 15 15 24 33 l17 32 -3 -32 c-2 -18 0 -33 5 -33 4 0 8 15 8 34 0 19 3 41 6
50 12 32 -13 15 -31 -21 l-19 -38 -10 38 c-5 20 -13 37 -17 37 -4 0 -10 -21
-14 -46z"/>
</g>
</svg>
